/* XPM */
static char *e2bf4299ff0542b5e0536bf8de8a66c3GxUfJMdHtoe9K00s[] = {
/* columns rows colors chars-per-pixel */
"50 50 244 2 ",
"   c #5A7B3B",
".  c #777C39",
"X  c #6C7D3A",
"o  c #5C7D47",
"O  c #667D4A",
"+  c #707E48",
"@  c #687E51",
"#  c #D71800",
"$  c #D00E00",
"%  c #E31802",
"&  c #E10E03",
"*  c #CC2B00",
"=  c #D92900",
"-  c #DA3600",
";  c #CD3400",
":  c #E52606",
">  c #E83B03",
",  c #F1280C",
"<  c #BD4800",
"1  c #CC4C00",
"2  c #CE4400",
"3  c #D34600",
"4  c #DC4400",
"5  c #D44900",
"6  c #DB4B00",
"7  c #CD5300",
"8  c #CA5801",
"9  c #D15401",
"0  c #DB5901",
"q  c #E44401",
"w  c #EA4403",
"e  c #E24B01",
"r  c #EA4707",
"t  c #E35501",
"y  c #E35B02",
"u  c #E95D04",
"i  c #EA5B0A",
"p  c #EC5308",
"a  c #F45A07",
"s  c #F54713",
"d  c #FC5A16",
"f  c #F34A0E",
"g  c #CC6600",
"h  c #D76803",
"j  c #D77708",
"k  c #D96A12",
"l  c #D47316",
"z  c #E46503",
"x  c #EA6304",
"c  c #E56B02",
"v  c #EA6C02",
"b  c #E46309",
"n  c #E9640A",
"m  c #EC6B0B",
"M  c #F5690B",
"N  c #E57301",
"B  c #EC7302",
"V  c #EC7C02",
"C  c #EA770A",
"Z  c #F47B02",
"A  c #F57B0A",
"S  c #F67907",
"D  c #EF6910",
"F  c #F46B13",
"G  c #FC6614",
"H  c #E57B13",
"J  c #FF7B1C",
"K  c #FD7815",
"L  c #FF4B23",
"P  c #DB7C20",
"I  c #FF7823",
"U  c #E37621",
"Y  c #76873D",
"T  c #6B823E",
"R  c #5F824B",
"E  c #5F8355",
"W  c #638444",
"Q  c #6A8444",
"!  c #6B8C46",
"~  c #64844B",
"^  c #6A854D",
"/  c #658A4B",
"(  c #6B8B4C",
")  c #668B45",
"_  c #728D4D",
"`  c #778A47",
"'  c #6D934D",
"]  c #67924B",
"[  c #73924D",
"{  c #7D924C",
"}  c #7B9242",
"|  c #668453",
" . c #6B8554",
".. c #6C8B53",
"X. c #6C865B",
"o. c #6D8B5A",
"O. c #648957",
"+. c #728454",
"@. c #738C54",
"#. c #72865C",
"$. c #738D5A",
"%. c #7A8C58",
"&. c #6C9254",
"*. c #6D925A",
"=. c #6E9B58",
"-. c #739354",
";. c #7A9355",
":. c #739A55",
">. c #7B9A55",
",. c #75935C",
"<. c #7A945C",
"1. c #769A5C",
"2. c #7B9A5D",
"3. c #7CA45C",
"4. c #6E8B61",
"5. c #6A8A61",
"6. c #748D63",
"7. c #778A62",
"8. c #759362",
"9. c #7A9564",
"0. c #759A63",
"q. c #7C9B63",
"w. c #769268",
"e. c #7C946B",
"r. c #7D9B6A",
"t. c #729667",
"y. c #7DA165",
"u. c #7EA26C",
"i. c #8D8B28",
"p. c #858A38",
"a. c #948E37",
"s. c #89953B",
"d. c #989239",
"f. c #9A8F2B",
"g. c #A5952B",
"h. c #A59836",
"j. c #B19D33",
"k. c #B39439",
"l. c #A68E30",
"z. c #AAA32C",
"x. c #B6A53E",
"c. c #C9840C",
"v. c #D98608",
"b. c #CF8512",
"n. c #DA8815",
"m. c #DC9718",
"M. c #D7940F",
"N. c #E28C0C",
"B. c #E98706",
"V. c #F48304",
"C. c #FA8403",
"Z. c #F48B01",
"A. c #FC8B03",
"S. c #F5830A",
"D. c #FC830B",
"F. c #FD8B0B",
"G. c #F08F0D",
"H. c #EA9408",
"J. c #F59302",
"K. c #FC9204",
"L. c #FD940C",
"P. c #F5960A",
"I. c #E68C17",
"U. c #FF8413",
"Y. c #FF8B11",
"T. c #F78C1A",
"R. c #EB9115",
"E. c #E79818",
"W. c #FA9514",
"Q. c #EAA31A",
"!. c #F7A219",
"~. c #D9952C",
"^. c #D99C38",
"/. c #FF8426",
"(. c #E99C27",
"). c #F29926",
"_. c #E79334",
"`. c #EC8F2E",
"'. c #C8A838",
"]. c #D8AA37",
"[. c #D7AC2D",
"{. c #E6A729",
"}. c #E9A839",
"|. c #F7AB3B",
" X c #E7B439",
".X c #FFB73D",
"XX c #EBAC2C",
"oX c #838C41",
"OX c #8C8E48",
"+X c #87934A",
"@X c #97994A",
"#X c #828F55",
"$X c #839B5C",
"%X c #869657",
"&X c #969756",
"*X c #968C45",
"=X c #A79A44",
"-X c #B19A4A",
";X c #8DA359",
":X c #93A456",
">X c #AAA346",
",X c #B6AB51",
"<X c #829664",
"1X c #829D64",
"2X c #829C6B",
"3X c #8A9C6C",
"4X c #879A67",
"5X c #829E73",
"6X c #879B71",
"7X c #84A265",
"8X c #84A36B",
"9X c #89A46D",
"0X c #8AA76A",
"qX c #99AA68",
"wX c #84A271",
"eX c #8BA473",
"rX c #8CAA73",
"tX c #8AA677",
"yX c #93A875",
"uX c #92B275",
"iX c #CAAB46",
"pX c #D6AA45",
"aX c #C8AB56",
"sX c #D1AC52",
"dX c #CFB44C",
"fX c #E7A944",
"gX c #FCAC44",
"hX c #E6B64A",
"jX c #FCB74A",
"kX c #F5BF58",
"lX c #FFC34C",
"zX c #FAC35A",
"xX c #E6C14C",
"cX c #FAC864",
"vX c #FFD66C",
"bX c #FFDA76",
"nX c #FFE67C",
"mX c #FFE46C",
"MX c #8EA980",
"NX c #FFDE80",
"BX c #FFE482",
"VX c #FFE48A",
"CX c #FFEA89",
"ZX c #FFE790",
/* pixels */
"&.! ;.%.9.w.r.q.0.<.e.9.%.<Xo.5.w.*.] :.9.7.5.@ #.<X8.8.e.9.-.&.1.' &.! @.#X;.<.@.-.0.*.@.<.,.q.<.@.",
"/ / ;.@.@.8.8Xr.,.$.o. .^ 9.,. .X.O.:.q.<.e.e.6.9.q...,.9.2X../ -.1.:.! %.#X<.-.<.,.1.| ! <.,.<.2.2.",
"-.<.2.,...9.r.0.#X%.@ @ o O.o.+.5.5.w.q.1X9XwXtXu.y.2.0XrXeX-.....-.&.( _ ;.;.<.0.*.<._ ^ @.Q O.^ ' ",
"1.,.-.1.@.&.&.$.3X%.@ @ o.*. .+.#.e.e.q.0X7X;XqX;X;X:XqXqX1X2.&.O.,.&.' ' ( %.1.*.*.<.%.@.^ o ~ / ^ ",
"y.q.y.8X1...] ,.4X+ @ #.*.*. .+.@ X.,.1X+X+Xh.z.j.,XdX>X@X;X3.=...1.<.( ) ~ ..o.&.&.@.%.#. .) Q Q ..",
"2.2.q.q.1.&...$.%.@ <X#.*.*.|  .O _ ` s.h.dXxX[.XX{. XhXdX@Xs.} ! >.2._ W ..X. .,.-.%.%.$.-.O.W / ..",
"-.-.-.9.y.q.1.9.9.9.9.-.1.,.e.X.@.Y z.[. XQ.M.N.N.N.N.I.Q. X[.g.p.} >.! Q @.4.4.9.$X,.,.1.1.O.R ^ ( ",
"[ -.q.2XwX0.9.r.8.r.q.q.;.@.8X<Xp.a.dX[.M.Q.H.B.B.B.B.B.v.c.Q. Xj.p.{ _ Q +.X.6.w.9.%.9.q.,.....-.-.",
"! [ <.8.0.o.9.wXq.r.u.*.4X<X4XoXg.xX~.].vXCX.XR.H.V j jXbX{.j R. Xj.oX&.+.+.o.| o.o.6.e.r.0.,.,.1.$.",
"! [ %.6.q.0.9.r.r.r.0.8.<X4X+Xx. Xm.}.VXCXbXjXG.P.G.I.|.nXzXj C n.].=X} %.@ o.o.o X.w.4Xw.8.$.,.2.1.",
";.$X8.8.,.9.9.r.2Xr.t.wXr.<Xd.[.M.Q.BXNXVXbXE.L.K.K.G.j E.T.v S V n.pXa.+ X...o.E O.$.$.%.<X,.,.2.7X",
"4X<. .o.o.,.-.9.<X6Xu.5Xq.@X'.XXQ.lXBXZXBX}.G.A.A.A.L.P.C B Z B B g (.'..  .-...5.O.X.#.9.3X<.$.2.$X",
"9.$.O | $.,...o.9.2X5X4X#X=X[.Q.H..XnXvX{.R.W.A.A.A.C.A.D.B Z B B B g }.&XQ _ ,.<.$.o.4.9.9.<.q.1.,.",
"$.,. . .+.$.@.@.<X9.e.%Xd.'.Q.J.H.Q.XXE.W.L.Z.A.C.F.A.A.A.Z B V B B y l sXp.T <.<.9.0.0.9.q.q.2Xq.@.",
"5.8.$.@  .+.+.+.e.6.9.+Xj.[.H.K.!.H.J.Z.J.K.K.J.A.A.K.A.C.C.V j N v D 8 ^.g.oX@.,.9.0.y.8Xy.r.8.8.#.",
"8.o.| @ 7.$.@._ o.8.e.oX'.Q.J.P.J.J.K.K.C.C.K.Z.K.Z.Z.C.F.D.C C N c D 7 j ].p.+.9.2X&.&.1.1.8X9. . .",
"9.@.o.o.o.8.<.%.@.@.9.+X[.H.H.P.J.K.L.W.x x W.L.A.F.Z.C.K u m C v m v h 8 }.d.-.,.9.-.&.,.2.q.-.| X.",
"#X^ | 8.e.9.@.;.;.;.$X>XXXN.{..XL.K.U.U.r - J Z D.Z.Z.U.I - M F m c c c 5 `.=X%X1Xq.>.3.$Xq.,.~ @ @ ",
"<X$.o.5.8.r.,.-.>.+X+XaX{.M.lXmX!.W.D * : : * K Y.C.F.e > , : = F v v v 5 P aX;X1Xq.y.>.! @.1.| @ | ",
"3X3Xe.8.r.wXr.<X7X;X@XsXm.R.vXbX!.W./.f % & f J C.A.K K = % # s F z v v 9 k sX:X>.0.&.! ! -.1.&...X.",
"6XeXu.r.8XeXeXyX8X;X>XdXM.).nXvXR.Z./.d # $ G D.C.A.D.I s $ = d F c z u t 8 pXd.$Xq.( ! -.' *.y.wXu.",
"yXyXwXr.2X6XeXeXr.$X>X].v.|.CXvXR.L.U.e a a t F.A.Z.Y.J ; q * G m m z t p 1 pXa.{ 0.^ ) _ ! ] y.8X8X",
"uXrXu.y.$XqXyX3XtX3X,X].c.jXCXzXN.A.F.D.D.F.Z A.Z.Z.A A D /.b b c c x t p 2 ^.l.T o.R W [ ] ~ R 3.7X",
"8X=.&.y.3XyXyXyXMX0X,X'.c.jXCXzXR.L.C.A.A.Z.Z.Z.Z.Z.V.U.S.S.C N c z n 6 f 2 ~.g.` ] o W Q T W / :.3.",
"W ~ ( q.q.0X3X4XtXyXaX].c.zXCXxXR.C.F.L.B.Z.J.V.V.V.Z C.Z Z B B c n u e w 2 ~.k.Y &.R ~ -.! &.*.=.:.",
"W W ~ q.$X3.$X7X8X&Xj.].c.lXCXzXR.A.A.Z.A.Z.V.V.A U.Z Z Z Z S h c b i e w 3 ~.k.X ..o ~ [ ( -.*.&.' ",
") ) O @.y.;X>.[ >.+Xj. Xb.jXZXzXB.C.F.V.F.V.V.F.V.Z V.V.Z Z v v c z p 4 r 3 ~.f.Y O.R ~ _ -.0.,.&.] ",
"1.1...@.y.0X3.' :.+Xj.].j gXZXcXR.Z.D.Y.A A F.V.S.B.V.V S v x x c i t q w 1 ^.i.X | | ~ Q -.r.r.y.3.",
"2.2.q.1X7X-.' :.2.p.f.].n._.VXcXN.F.C.U.a M A Z V.V.B.S.K 5 u m z n 6 q w 1 pXi.X ^  ./ ~ ..2X8X8Xy.",
",.q.r.y.2.) ] :.-.+Xi.].n.I.BXbXE.S.A K > w K S V.V V M d - 4 i b i 4 r q 5 sXi.Q  .....^ @.r.eXwXr.",
"2Xq.2.3.>.;.$X7X$.$Xs.'.I.j zXnX).T.x - , % * n A S.S 6 : , # = i y 5 r - b sXp.+ ^ O.O.$.9.5XtXtXtX",
"2X,.3.0XuX7X7X1Xq.2.oXx.(.j _.BXgXH /.r % & > I A S.S a % & $ L d 6 4 r 6 U aXoX_ o...o.8.9.6.e.5X5X",
"5X9.q.uX0X<.7X2.8.2X%X>XXXj j jXjXh U.d # $ d I A N v G = # # L p 6 q 4 1 _.-X+._ ^ X.4.6.4.w.w.e.5X",
"5Xw.0.9XrX1X0X9Xr.8X<Xi.XXB.h H C C F 4 r - 4 K c c z M - > = s r r q 5 9 fX&Xe.@. .@ 7.6.w.6.4.e.5X",
"5X2X8.9.9.2.7X2X*.8.7XY '.E.j c B c m x D D b z z m m 0 y i t e q q r 2 n.iXOX$. .o.#.4.8.q.8.o.6.w.",
"e.2X9.0.9.1.2.0.0.*.-.p.g.].j c B c m m c N C z m b b z z n t e r r q 1 _.h.%X+.$.o.#.#.,.q.1.o.X.X.",
"7.9.8.<.9.....0.=.O.~ } s.iXm.h m N c N c c z c b h z c x u e q w e 3 l aXp.OX%.@.o.#.$.8.,.,.$.| X.",
"4X<X8.2Xq.../ -.*.0.&.! Y d.[.h c c c c c v v z b z m 0 u e w q w 4 8 }.*X+ ;.;.....o.w.9.r.q.r.9.r.",
"4X4X5XuXrXq.( ..*.&.( ! ;.OX].n.h x c c c z y n b n 0 y 4 e w w q 5 b.'.. @ %.+.^  .*.q.5X6XwX9XrXrX",
"6XyXMXrXy.2.&...0.O.' ( ~ ` d.hXj 8 c m z x M u n y y t t q r r 5 j hXi.+ @ #.#.....8.t.5X5XwX8X2X8X",
"2XrX0X7Xy.0.2.-.1.1.! W ^ @.. l.gXg 8 h i n x x x x i i e 6 e 2 h |.d.+ 7.7.8...^ ^ ..,.9.q.2XwX1.<.",
"<.,.&.&.1.2.;._ -.:.! T -...+.oXk.hXl < 0 t y t t t e 6 6 5 5 k |.k.+ 6.7.6.*.R o.O ..,.-.2.8X*.2.2.",
"-.&...W / 1.>.;.-.>._ Q $...6.<.+X=XhXI.9 5 3 e e q q e 5 8 n.jXk.*X%X<X#.<Xr.e.w.4.$.<.;X>.2.1.-.&.",
"....( ) :.y.2.-.-.>.! ^ @ ..5.4.o.p.l.fXgXH k 9 7 1 9 9 `.gXpXh.+X#X3X<X<.9.$.wXw.4..._ -.[ ! :.[ ..",
"] /     -.7X0X$.>.-.@._ ^ #.O.O.| ;.&XOXh.dXhX X[.XXhXhXsX=XoX{ 0Xq.2X4X2X2X9.1Xr.9.%.;.[ >.3.) ) W ",
"..O.    ) -.y.q.7X,.<. .+.$.X.o | $.8.0.#XY i.z.z.z.g.i.p.+Xq.0.y.r.2Xw.w.q.1X>.q.9.-.[ [ -.[ [ ~ ! ",
"@...~ W Q ! *.r.1X1.*.|  .X.,.~ O ..X.w.q.<.{ oX&XOX%X#X_ %.q.8.r.r.r.r.8Xq.$X%X<.q.-.2.1X$.( 7X( -.",
"y./   W ! -.*.8.,.0.-.6. .$.<...-.#.6.w.w.9.,.<.3X3X%. ...#.$.-.1.e.wXu.q.>.$X#X@.@.7XrXrX1X<.,.@.2.",
"2.@.~ ( -._ -.1.0.<.8.o.X.#.,.,.,.6.$.e.9.r.r.q.+.$.$. . .X.$.$.o.9.2X9.q.2.<.$X<.<.0X9X8X<.1X2.<.<.",
":...! -.-.( @.1.<.0.8. .o...8.<.8.9.8.4Xr.q.2Xq. .$.%. . . .$.$.o.9.r.9.9.q.<.9.<.<.1X7X7Xq.yX7X-.@."
};
