/* XPM */
static char *_d5422b3725447b0837958496db27e4bc7M3fKJAcw4fy6HW[] = {
/* columns rows colors chars-per-pixel */
"50 50 250 2 ",
"   c #153F11",
".  c #483A00",
"X  c #1F4619",
"o  c #324D02",
"O  c #2B5C00",
"+  c #215300",
"@  c #315813",
"#  c #2C6100",
"$  c #346B00",
"%  c #376705",
"&  c #3B7001",
"*  c #3A6619",
"=  c #356916",
"-  c #385A26",
";  c #4B4602",
":  c #565604",
">  c #545711",
",  c #615A08",
"<  c #476C0D",
"1  c #5A6708",
"2  c #497609",
"3  c #587607",
"4  c #48691A",
"5  c #497919",
"6  c #567519",
"7  c #5B6E1F",
"8  c #696B0C",
"9  c #6A6618",
"0  c #756D19",
"q  c #677519",
"w  c #76751A",
"e  c #60700E",
"r  c #5B5C24",
"t  c #655E24",
"y  c #7D4F22",
"u  c #496C26",
"i  c #4B7728",
"p  c #577828",
"a  c #4C7839",
"s  c #5C7936",
"d  c #53682A",
"f  c #696B29",
"g  c #796A26",
"h  c #6A772A",
"j  c #757C25",
"k  c #69783B",
"l  c #787737",
"z  c #6F6A36",
"x  c #5B7A43",
"c  c #4F7949",
"v  c #677C43",
"b  c #667E52",
"n  c #777C47",
"m  c #935336",
"M  c #847825",
"N  c #867B38",
"B  c #8D7434",
"V  c #977E42",
"C  c #598718",
"Z  c #53870E",
"A  c #7A871C",
"S  c #68941A",
"D  c #7A9319",
"F  c #668D14",
"G  c #5A8429",
"H  c #5C8837",
"J  c #4B8121",
"K  c #668728",
"L  c #778A28",
"P  c #6A962A",
"I  c #79982A",
"U  c #64843D",
"Y  c #688A39",
"T  c #788A36",
"R  c #6A9636",
"E  c #799A38",
"W  c #76A628",
"Q  c #79A836",
"!  c #76A92D",
"~  c #5D8543",
"^  c #5D8548",
"/  c #5E915A",
"(  c #638543",
")  c #698445",
"_  c #658A45",
"`  c #6B8B45",
"'  c #65844B",
"]  c #6A854C",
"[  c #668B4B",
"{  c #6B8C4C",
"}  c #728C4D",
"|  c #79874A",
" . c #6B9246",
".. c #6C914C",
"X. c #6B9747",
"o. c #72934D",
"O. c #7A954A",
"+. c #739A4C",
"@. c #769847",
"#. c #668451",
"$. c #6A8554",
"%. c #6D8B53",
"&. c #6C8B5A",
"*. c #688857",
"=. c #728E54",
"-. c #7B8C53",
";. c #748D5B",
":. c #7B8F5B",
">. c #768454",
",. c #6D9353",
"<. c #6E925C",
"1. c #6C9855",
"2. c #739354",
"3. c #7B9455",
"4. c #759A56",
"5. c #7A9A55",
"6. c #75935B",
"7. c #7A955B",
"8. c #759A5C",
"9. c #7C9A5C",
"0. c #7AA646",
"q. c #7CA358",
"w. c #7DB34B",
"e. c #6D8861",
"r. c #758D62",
"t. c #788F63",
"y. c #6A9563",
"u. c #759363",
"i. c #7B9564",
"p. c #769A64",
"a. c #7C9A64",
"s. c #7D966C",
"d. c #7C9A6B",
"f. c #759569",
"g. c #7D9C71",
"h. c #7DA166",
"j. c #7DA171",
"k. c #828D15",
"l. c #868725",
"z. c #859827",
"x. c #98952D",
"c. c #83853A",
"v. c #898939",
"b. c #988738",
"n. c #839533",
"m. c #84943D",
"M. c #889B37",
"N. c #969435",
"B. c #968A2F",
"V. c #A78D39",
"C. c #A7943B",
"Z. c #B59A3F",
"A. c #86A42B",
"S. c #88B32A",
"D. c #84A43B",
"F. c #89A638",
"G. c #95A537",
"H. c #8AB838",
"J. c #93B53C",
"K. c #A1A23C",
"L. c #878746",
"P. c #998945",
"I. c #889948",
"U. c #989549",
"Y. c #848E57",
"T. c #839455",
"R. c #82945C",
"E. c #829B5C",
"W. c #8B9555",
"Q. c #989756",
"!. c #978F51",
"~. c #A48C47",
"^. c #A79646",
"/. c #B59A4A",
"(. c #A69B58",
"). c #B59C54",
"_. c #A88E53",
"`. c #88A648",
"'. c #99A64A",
"]. c #85B547",
"[. c #96BA48",
"{. c #83A15C",
"}. c #85A155",
"|. c #96A558",
" X c #97BA59",
".X c #88B854",
"XX c #AAA84A",
"oX c #A9A558",
"OX c #B8AA57",
"+X c #B6B657",
"@X c #B1AE4F",
"#X c #829664",
"$X c #829C64",
"%X c #899C65",
"&X c #839C6B",
"*X c #86986B",
"=X c #829C72",
"-X c #869C72",
";X c #A89C60",
":X c #84A364",
">X c #8AA465",
",X c #85A36C",
"<X c #8AA36C",
"1X c #8BAA6D",
"2X c #86AA6A",
"3X c #95A76A",
"4X c #86A372",
"5X c #8BA472",
"6X c #8CA973",
"7X c #8DA97A",
"8X c #8AA378",
"9X c #92AC7B",
"0X c #94A975",
"qX c #8CB075",
"wX c #99B073",
"eX c #A5A465",
"rX c #BAAA64",
"tX c #B9B767",
"yX c #B8B875",
"uX c #B7AE75",
"iX c #C7B759",
"pX c #C9AB57",
"aX c #C6B866",
"sX c #C9BA76",
"dX c #D6BB75",
"fX c #CFB56B",
"gX c #97C758",
"hX c #97C84A",
"jX c #A5C358",
"kX c #A8D257",
"lX c #A7CB64",
"zX c #B3CB6D",
"xX c #B4D873",
"cX c #9ECD65",
"vX c #CDC164",
"bX c #CEC675",
"nX c #D6C574",
"mX c #D9C86C",
"MX c #E5C877",
"NX c #E6D178",
"BX c #F2D07D",
"VX c #AFBE85",
"CX c #D6C683",
"ZX c #CFCD8A",
"AX c #EBD887",
"SX c #FAD78A",
"DX c #EACC85",
"FX c #FDE395",
"GX c #F0E08B",
"HX c #E6E1A1",
/* pixels */
"U ` _ _ ~ H ~ [ ' 7.2.] $.i.&.*.*.c #.=.r.;.i.;.o.U ~ ^ ..q.h.p.a.,Xa.$X$XE.#X6X&X5X6X2X8.4.9.o... .",
"U ` U { [ _ { 5.7.2.6.s.u.6.#.#.*.#.#.%.=.a.#X7.3.2.1.[ ..:X,X,X<.i.9.$X$X=.3.E.$Xi.a.u.=.2.2.` _  .",
"v { { 8.4.2.2.7.i.2.d.<X=.%.] ' ' ' ] ] &.p.2Xd.h.p.p.h.9.8.4.<.2.4.2.9.5.] [ ] ] ' ] ' ` 2.3.[ H ` ",
"' 7.i.:Xi.a.6.&.%.6.<X<X6.6.2.' ] %.%.%.<.h.6X2X4Xp.i.d.h.a.1.2.a.4.6.2.9.,.{ [ E.5.3.o.=.9.2.( [ { ",
"i.,X&X$X7.$X3.2.a.u.p.f.p.a.6.%.$.>.;.&.6.p.d.,X8Xs.i.i.5X7X&X$X:X4.a.1.h.8.1.1.1...o.` } 7.-.} 2.2.",
"=X=Xi.E.7.3.7.9.,Xj.d.p.u.s.;.;.$.$.&.e.y.&.y.a.g.*X*X*X8X7X&X<X$X7.<Xa.8.p.,.4.1...o.{ } T.3.R.7.i.",
"p.y.<.7.9.3.5.5.8.,X8X8Xs.*Xr.>.;.e.e.f.s.u.&.r.g.=X#Xi.g.d.a.,X%XE.$Xi.&.;.%.%.2...4.o.2.3.3.$Xi.7.",
"/ <.,.2.E.9.9.4.%.8.&X*Xr.t.r.;.t.e.e.t.s.7.$.&.b t.$X7.d.h.8.9.E.3.-.3.>.7.;.6.2.%.5.2.2.2.>.a.7.{ ",
"*.[ 8.%.} 3.:Xq.p.<.%.&.$.i.;.%.&.&.r.&XR.R.#X;.t.s.=.{ ,.a i 5 G p +._ ..8.2.7.;.3.9.{ [ <.8.8.9.4.",
"4.6.7.7.>.3.9.6.p.*.$.x ( } ` ( ' 2.s.&Xv L.0X0XwXR.@ u i H 0.0.0.E Y G Y  .9.2.7.=.7.=.{ &.[ x #.%.",
"9.9.9.%X;.;.&.<.d.*.v | 3.O.@.0.p p _ :XV z #X%XW.f 6  XlXxXlXzXlXlXlXcX.XH X.X.2.} ;.6.>.' ^ #.[ [ ",
"4.4.7.%X&Xu.&.u.&.;.Y.W.W.|. X XgX0.5 ` z r -.3.> ; q lXm.j 1 < 3 1 I D.lXcX0.R @.9.3.=.i.p.$.' $.%.",
"1.1.8.d.4Xg.f.d.$XR.Q.eX!.oX|.I.M.gXR < l > I.6 q : e 1 : 9 c.c.v.M 0 8 8 l. X`.@.}.{.$X<X,X6.' 2...",
"[ 8.a.u.j.g.j.4X-.3XQ.(.CXeX|.|.m.M.].< m.w C 6 q 1 1 q m.|.Q.Q.!.(.oX^.l.8 8 '.I.} 9.:Xi.u.&Xi.7.2.",
"2.$X#X;.i.u.a.1XT.|.(.CXQ.W.R.3.W.m.D.C I jXW W `.o h | k ) 3.E.$X$XW.U./.U.j w I.O._ 4.p.6.$X$Xa.9.",
",X#Xb >.u.r.=.2X3XI.ZXyXQ.W.E.:.-.I.Q S F S ! S.2 % p } H { ] ;.f.i.#XQ.L.B./.l.j `.+._ 6.a.3.7.$X{.",
"t.&.] $.*.f.u.7.q.Y Y 6 G s ~ [ -.}.Q Z S F 3 3 3 2 4 -.}  .} 6.8.7.*XY.W._.V.Z.k.A R +.2.a.7.i.$X} ",
"e.u.*.&.b $.p f K E E `.`.E  .Y 4 4 J 3 A.G.A.G.A.3 @ 6.o.E.2.{ _ 5.=.%X3.L.Z.V.V.l.E 0.>X$X7.h.9.] ",
"i.;.#.] ~ * F [.J.G.x.G.n.'.'.G.F.P < 2 `.'.P.P.l.T s _ { ,X9.{ H 0.G G P n.B./.C.w [.P 5.7.,X,Xu.&.",
"7.>._ i G  XjXz.z.z.iXXXtX+X@X@Xx.M.M.E L !.y y b.m. .O.[ ..p G R P K I L q iXiX/., 3 jX0.o.5.( 6.i.",
"#X3.~ J gXhXk.XX+XXXiX~.rXoXfXnX+X+XXXb.oX_.m m V tXeX3Xi = S S R < L M.w OXiXZ./.: ; Q Q `.i * x 2.",
"<Xo.= gXJ.D iXtX'.v.b.dXuX(.rXP.B.vXNXAX).~.m m B (.sXT 6 P ! S L m.tX^.^.pXiXV.b.; L 3 A E i i ( 9.",
"9X_ R hXD G.tX!.W.>XN aXsXrXrX(.x.l.b.DXDXCXz B ~.B U.K n.I S A (.V.B /.dXMXBX/.B . B ^.w 1 E q.:XqX",
"qX= Q H.k.XX!.wX6X,XW.N ZXZXHXtXM.z.: _.(.AXCXsXCXpXU.XXN.x.x.N./.pXBXDXSXSXOXb.; f ~.^.C.0 Y ~ q.h.",
"^ * .XI A U.3X%X7X9XwX:.s >.eXW.M.E o T.W.oXsXdXFXGXGXGXNXAXNXBXSXBXSXSXMXdX)., r L.N ~./.M l { 2.4.",
"~ = hXA.l.U.%X#X%X&X5X5Xi.>.| T I P * a.Y.W.!.l.OXOXmXAXmXSXMXBXSXMXmXMX/.m t > | >.L._._.g h E.,.X.",
"/ = gXD.j oX%X{ 5.T.R.3.-.R.{.}.n.`.4 a 3.R.4 6 I k.x.C.B ).OXB.)._.w g t r v } #.>.V _./.M k q.4.4.",
"y.# X.].j v.@.5.T.O.E.E.] ) ` Y '.L @.= o.4 Z ! A.k.x.+XU.oXw g l g f | T.Y.;.#.b v ;XpX~.; } 2Xh.h.",
"g.i J gXF.L I.5.o.5.2.2.3.} ' 5.|.`.`.& # C ! S.D G.tXI.(.sXf >.3.} E.3X3X7.6.i.b n CX).~.y $X8X4X4X",
"8Xs + w.gXI L }.O.{.q.+.5.5.4.X.I.|.O & W J.S.D @XtX|.T.yXQ.k #X2.p.i.9.3.-.%X:.n uXfXV.g z #X-X=X8X",
"=Xd.@ # H.kXF.m.E.O.w.w.0.0.w.0.H O 2 H.J.A.z.'.|.>X>XVXyXr :.6.9.$X$X$Xi.T.T.c.pXdX/.^.l >.e.r.s.g.",
"g.d.1.4 # S jX X X X.X].Q Z $ $ $ R ].D.z.z.+XU.p s k -.> ) 5.4.9.T.>X>XT.W.v.OXMXpXV.w n #Xf.r.f.s.",
"f.s.9.+.5 # & G Q 0.R 5 $ & Z ! J.J.I L OXbXXXx.N.n.T 6 h K G Y K T E c.U.XXmXDX~.b.N l Y.&Xu.*.*.*.",
"=Xu.2.8.q.R 5 & # O & C S ! hXH.D I '.oXoXQ.aXiX+XXXXXG.I.E I.`.U.XX+XbXaXNX^.b.v.l n Y.#X;.p.d.6.u.",
"s.g.7X1X2X+. .H R R ! H.H.W S S `.}.T.| | l | I.n.tXoXzXyXCXtXbXdXdXrXrXP.v.l h k } ;.6.j.,Xd.<X7X7X",
"=Xj.VX2Xh.4... .Y C S hXkXQ P w.q.$.;.;.b v | 7 7 T.L.W.!.!.P._.V !.N l L.n -.Y.>.#.6.p.p.h.<X&X$Xa.",
"s.i.2.=.2.$X9.2.@.`.P K C 2 4 Y 3.:.;.t.u.%.s 4 O...:X9.$X-.L.| -.>.:.-.>.:.7.b $.*.;.r.6.$X%XR.7.7.",
"%.2.` ` { 5.7.7.4.o.E Q C G ` 7.7.i.i.i.i.6.~ i X. .1.y.a.<X$X#Xa.&Xa.i.#Xi.;.&Xi.;.*.7.$X7.| 7.2.=.",
"%.' s U 3.>X$X6.6.5.{.}.Y ` ` ] ] 3.$X#X2.=.{ u 4.2.2.;.s.#Xr.*X7Xu.-Xi.i.#X7.&Xi.3.2.1.,.9.4.[ ) _ ",
"=.[ ( s ` o.$X$X&Xi.;.{ ) o.] ] ) =.:.7.7.2.:Xs d %.i.a.*.f.b c b =Xs.&Xi.#X<X3.9.a.2.4.2.1...5.` [ ",
"a.{ H U } ` 2.9.i.i.r.%.$.%.=.%.#.&.&.u.d.u.%.$X) - u - X X X - *.&X5X&X$X$Xi.9.2.2.5.2X>X5.o.9.2.7.",
"8.$.{ ` } ` 3.7.6.i.u.&.&.=.2.8.&.6.f.f.f.s.a.a.2.' b a a c / y.&.a.s.a.i.i.7.7.=.2.2X1X9.E.>X9.=.4.",
"<X,.{ 2.5.2.{ ' =.a.u.*.&.&.&.u.f.d.g.g.g.j.g.u.' 6.6.%.*.*.e.&.&.8.6.i.&X*X*X*X<XE.&X&Xi.3.:X:X7.i.",
"1X[ x 2.a.4.%.' %.4.=.] &.2.4.6.6.;.u.f.f.f.f.%.%.=.;.#.#.*.&.;.%.&.%.i.&X*X-X*X5X5X<XE.2.=.$X<X6X5X",
"d.2.#.%.6.2.%.4.[ ` ` ` o.4.9.5.E.9.9.9.p.a.&.' ] 6.;.$.=.i.i.&.2.6.6.i.#Xs.&X&X5X,X7.4.3.*X#X#X$Xi.",
"&X8Xs.2.) ` { 2.4.o. .O.}.:X6X&X9.9.2.o.4...[ ( $.$X>.;.;.u.&X6.p.9.i.,X,X,X5X5X7.;.6.:X7.#X-X-Xa.i.",
"$XE.9.5.) } 2...2..._  .3.4.$Xa.6.{ ......+.9.p.i.-X*X-X&Xa.6X<X,X$X:X5X<X<X0X1X5.5.8.9.4.4X9Xs.f.u.",
"7.) ` }. .+.q.2...2.U ` 2.2.i.s.9.[ _ .._ [ 9.<X,X9X9X9Xi.h.,X1X5X<X&X<X%X$X>X:X:X:X<X<X,Xp.i.&Xa.d.",
"%.` ` o.` o.3...` [ ..[ %.%.&.&.%.x ( { [ ~ [ 2.1X1X<Xa.$X,X6X6X5X,X5XqX<X%X$X<X0X<X6X<Xs.6.,X4X4.$.",
".._ ( .._  .o.` ..[ 4.[ %.%.2.=.%.x ' ,.{ ' { 4.2...[ { a.$X6X5X5X5X9X9X<X$X$X5X9X5X5X&X&Xi.5X<X7.,."
};
