/* XPM */
static char *e013b02d25614663e14e1b1452e94250AcgrarAgYdsrKYHk[] = {
/* columns rows colors chars-per-pixel */
"50 50 145 2 ",
"   c #597E3D",
".  c #5C7D45",
"X  c #5E7A4B",
"o  c #617F45",
"O  c #627E4B",
"+  c #5E833E",
"@  c #63873D",
"#  c #64893E",
"$  c #5E8244",
"%  c #648444",
"&  c #688747",
"*  c #658945",
"=  c #698B46",
"-  c #65834C",
";  c #69864D",
":  c #678A4A",
">  c #6B8C4C",
",  c #708F4D",
"<  c #6B9145",
"1  c #6D914D",
"2  c #71924E",
"3  c #668351",
"4  c #6A8653",
"5  c #6D8B53",
"6  c #678259",
"7  c #6C8659",
"8  c #6E8A59",
"9  c #708652",
"0  c #718E54",
"q  c #71865A",
"w  c #728D5B",
"e  c #6E9251",
"r  c #749354",
"t  c #789756",
"y  c #749955",
"u  c #799A56",
"i  c #76935B",
"p  c #79965C",
"a  c #769A59",
"s  c #7B9A5C",
"d  c #7DA05C",
"f  c #748E62",
"g  c #769261",
"h  c #7A9563",
"j  c #7A9961",
"k  c #7B9860",
"l  c #799B61",
"z  c #7C9961",
"x  c #7D9961",
"c  c #7D9A60",
"v  c #7D9A61",
"b  c #7D9B61",
"n  c #7E9B60",
"m  c #7E9B61",
"M  c #7C9963",
"N  c #7B9F61",
"B  c #7E9C60",
"V  c #7F9F60",
"C  c #7F9C63",
"Z  c #7B9865",
"A  c #7C9865",
"S  c #7C9966",
"D  c #7D9A66",
"F  c #7E9A67",
"G  c #7F9C64",
"H  c #7F9E64",
"J  c #7F9C66",
"K  c #7D9A63",
"L  c #7B9768",
"P  c #7D976D",
"I  c #7C966A",
"U  c #7D9968",
"Y  c #7D9B6B",
"T  c #7F9A6F",
"R  c #7E9A69",
"E  c #7EA163",
"W  c #829F5F",
"Q  c #809663",
"!  c #809F61",
"~  c #819E62",
"^  c #809F62",
"/  c #809C64",
"(  c #809D64",
")  c #829F65",
"_  c #809C66",
"`  c #809D66",
"'  c #829F66",
"]  c #819D65",
"[  c #819E68",
"{  c #829E68",
"}  c #839E6B",
"|  c #829D6D",
" . c #829E6D",
".. c #839F6F",
"X. c #829E6F",
"o. c #859E6E",
"O. c #879F6F",
"+. c #829D6A",
"@. c #889F6B",
"#. c #839A73",
"$. c #829E70",
"%. c #819C72",
"&. c #859E74",
"*. c #839D71",
"=. c #889E79",
"-. c #82A065",
";. c #83A065",
":. c #84A167",
">. c #84A267",
",. c #84A266",
"<. c #83A06A",
"1. c #81A36A",
"2. c #85A269",
"3. c #87A769",
"4. c #85A26C",
"5. c #86A26D",
"6. c #84A06F",
"7. c #85A26E",
"8. c #86A36F",
"9. c #85A26B",
"0. c #8AA46C",
"q. c #86A969",
"w. c #8CAA6D",
"e. c #90A66F",
"r. c #84A072",
"t. c #86A272",
"y. c #88A170",
"u. c #8BA773",
"i. c #8AA374",
"p. c #89A575",
"a. c #8AA572",
"s. c #8FAB75",
"d. c #8FA977",
"f. c #8DAA74",
"g. c #8AA079",
"h. c #89A478",
"j. c #89A679",
"k. c #88A478",
"l. c #8DA979",
"z. c #8FAA78",
"x. c #90A676",
"c. c #91AC75",
"v. c #90AA79",
"b. c #92AB79",
"n. c #97B179",
/* pixels */
"* = & = % + % * = r r : 4 g w 4 5 . . g 5 i y e e $ 3 $ j :.N s ] :.~ _ _ p s x.@.O.v.t.W t W r , = ",
"@ & & = * * * i l g i j g g O - ; - - 5 8 E l y y e e : e l 3.~ 2 p s _ s 0 i s p _ x p r , , # # < ",
"% - , r p t r p i i o.o.w 8 5 - - 3 3 ; 8 J r.E E d l E d d y 1 r s r s t > > & = = % o = p r = # = ",
"% t r :./ s r 5 5 i 9.u.g g i - ; 5 8 5 g T j.j.T E g E s s e r W 0 t i t r , ; u y u 2 , t r & = = ",
"z 9.} / i z s i s z x A g U p 5 5 5 7 g f h T &.g.T g Z u.s.<.J :.i s p s s r r y > > , = u 0 > 2 0 ",
"| t.A A z p r s :./ A g g h i w 4 3 7 f f 8 g P #.T U U l.p.| 6./ z 3.s s a r y 2 1 r > 0 t p t p ~ ",
"p p 0 i A s s s p 2.u.<.J U 8 8 7 7 f f I L 8 g P T T g R R R t.8.i A s 1 > > 5 y 1 r i 0 r s ~ W w ",
"> 5 0 i x z s g > s +.R g g w 8 i 8 7 g Y i 4 6 6 I I L L j i a s s 5 r e t t r 0 r i i i i 9 z t & ",
"> > i r 5 t +.} i i w 7 4 g i 7 q 7 i Z g l g w I I f w I +.> : r t r > e i i t r p t 4 > g s r p t ",
"i i i i 0 p t g U 8 - o - 4 8 7 5 w x +.1.8.8.f.p.| 2.u.c.u.a > > r , & 5 y p g g w p 0 ; > % - > 5 ",
"N s s :.p 0 > w T 7 4 4 w i 9 4 7 8 p z E 2.9.z z :.c.c.w.:.s a > u y > : ; w 5 5 i r r 0 ; . - & 8 ",
"y s i +.p 0 w f w 8 i 9 g i ; 4 O 8 i p / N s i s i t i r i z a 5 r s 5 - 5 7 5 w p w w p i 5 % % 5 ",
"y r i U 9.z h U g A x h h w +.f i 5 r s i t r r e 8 5 > ; 5 s s i i y > % 8 8 8 g p g g h h 7 ; 2 1 ",
"= e i g I i h o.A / A h +._ *.I i 5 r r u r > > : : :   % i >.N y s r 5 5 - 7 7 8 8 g +.U h i y t r ",
"r i g i I h I +.+.A A A A _ h s ] t > y r r r ; > 5 > $ + & r N A <.i i 4 ; 8 w O O w h g p i r z s ",
"/ U 7 7 w i w A A 9.o.| x A i 0 r u 0.3.p r z 0 N l : $ + & > 0 R j i i 5 4 8 w 8 7 8 8 g A i r t :.",
"f f 4 4 4 p 0 0 I Q Q Q h s p r r ,.e.e.Q ) _ w s ~ ; > > 2 r r p p A g 8 8 8 i L i g f g A i J A r ",
"f f 7 9 ; 9 8 q h g h Q Q Q _ _ W ) ] W p 0.} s h @.0 , r u , 0 ; r p w ; 5 8 w g g g I a.R J J j 4 ",
"w q 7 O w q 9 w q w Q w ) e._ x.x.a.s w 0 ~ w.0.0.x.4 o > W s > % > s , % 5 i r i s r p i h t.g 8 8 ",
"j 9 q w g p i i i i Q W Q W ~ ) ) Q i i s t ~ +.A @.w ; > 2 , r r > = = = i r N i l i s s j i 4 7 - ",
"Z g q w U A r p W i ] @.e.0.0.W r r _ i ~ } 2.h Q +.0.s r * * : y y 2 < y s q.q.d -.s y 1 e i 4 X 6 ",
"9.| o.A J a.0.o.@.@.0.e.2.n.e.s p ] z x o.c.U w x } x s s : 1 1 2 2 = * y r s >.s y 1 : 1 1 a a j g ",
"s.c.u.s -.0.a.a.o.} i.+.} ) 2.2.~ 0.0.+._ +.*.A A g = 2 u < y u 2 < 1 % & 2 i i p a : > 1 1 : E q.q.",
"c.3.z N <.f.f.a.i.0.b.} +.~ 0.v.@.b.i.h w ) x.x 5 r = # 1 = y y > 1 < , > 2 3 5 5 5 $ $ 1 * $ * a >.",
"> - > ~ / 0.a.+.f.b.b.u./ s c.x.x.i.Q h W e.W t 1 1 * # * # 1 1 = : < e 5 - 8 g 8 8 $ $ e : > 1 y y ",
"$ ; - s :.N ~ N / } +.~ p z x.O.i.x.i.W r W r , = * * * * * $ # & % e r * 4 g i ; 8 $ 3 g 5 i y e e ",
"2 y - 2 W >.s r t z ~ N 0 t x p ~ s t , , 2 = # < + * * & : * & i J L i N g g - ; ; 3 $ 5 8 l s y a ",
"a s l u d y 2 r s 0 p p > > % = = % o = W 2 > @ * * * 1 y s i y i i i o.o.q w 4 4 3 - 4 3 e U r.E E ",
"Z L R E u 2 r s r t t t r > > u r u 2 , t r & = > & y r :./ t i > 5 i 9.i.A f i - : 8 8 6 i T k.j.T ",
"T h j u.s.1./ >.p s z t s t r t 2 , , = s r , 2 0 s 2./ R i A t i p z s x g A a 5 ; 5 7 g f L Y &.k.",
"R Z z s.u.| 9.+.N } s W s > 2 , , r ; , r p t s } +.2.A A j s r z :./ J g g Z g 8 3 4 7 f f f g T T ",
"| | g J R J 3.8.i A z 1 0 & r r , t i 0 i p z s w t i 5 p / p s s i 3.0.+.+.R 8 8 7 6 f f I L 8 f P ",
"L I h h i i a j i e e > a r i r 0 r i i i 8 s s % ; 5 r r s z s i > p +.A g g i 8 f 8 7 L I i 4 7 6 ",
"U g w I :.4 ; i i 8 > 1 i i t r p p 5 ; p t i p i > 5 r r 5 i :.T i i 8 3 4 g w 8 8 7 i L g j j w h ",
"+.+.l.f.0.a 1 > y e > e r i g p i i 5 > 5 o - > 5 i i r y 5 i i i U 8 - O - 4 w 7 7 w A R 9.8.8.u.u.",
"2.b.c.u.E s i 5 a r 5 > ; w w 5 i 0 i 0 ; % ; & > s N s :.i r 4 w | 7 4 ; i i 9 4 4 8 i J J <.:.z / ",
"p p e i a j p r i s > % 8 7 9 i p w i p i 8 % % r y i p +.p 5 i g 8 8 w 8 i w ; 4 - w i a N N p i s ",
"r 5 5 - 5 s t p y i > : 5 7 w i g h g g g 8 & , 5 e y i A 6.A h R g +.A h x w +.i i 5 r s i i t r 0 ",
"= $ + $ i >.-.r i i 5 > - 8 7 7 7 g U U A i r t y > r i g U i h 9.g +.A h A A o.U i r r r t r > = % ",
"5 1   + * y N A / i i 5 3 8 5 O 3 w h g g i i s u 2 i i i h h U +.U / U I x _ h g J i 1 r y r t & ; ",
"j > % + = > 0 A j p i 4 3 w 8 8 7 7 8 g Z i w t ) o.I q 8 8 L i I A o.o.o.A _ t r r W e.,.W 9 W 0 s ",
"z & ; > r 0 r t i Z g 5 5 8 g g i f f g J g _ N 9 w f 4 ; 7 i 9 9 x +.Q I h p p t 2 ,.e.@.W ] W i p ",
"+.i > r u r 0 & i i i ; 5 8 w Z h h I 9.+.U U i ; w w 9 4 4 8 0 8 p Q g h Q Q +.) s 2.) _ p ) @.p p ",
"x.4 % & W u > % > s r % e e 8 a p w s g A &.f 8 9 p q 7 4 0 q w w q q Q p @.e._ u.u.0.Q i > W 0.0.u.",
"@.0 ; , 1 r y r > = = & r a s u u t s s Z i 5 7 3 i q w q i h h w w w ] Q Q Q ~ 0.) x g 0 W s ~ +.A ",
"+.2.W r * * * r u 2 > 2 s >.w.E N E r 2 e i 7 X 7 Z f w w A A w p W p ) @.0.0.0.W r w _ i s 2.} h U ",
"~ s t t = 1 1 2 2 < * y r s >.s y > = 1 r r t j a 8.+.| j ~ u.t.9.0.@.0.a.@.n.c.p p z ~ A &.v.A i g ",
"i & , W < y d 1 1 2 * : t r r s a : > e * > E 1.q.c.s.w.l :.8.u.a.o.o.0.@.) ) @.2.~ 9.0.+.| Q *.U Z ",
"r = * < < y y 1 = 1 1 : 5 > 5 8 4 $ $ 5 > $ $ d E n.E E J E f.f.i.i.t.b.9.2.~ o.b.@.b.O.A w +.d.h 4 ",
"5 * # # # 2 e = = = y 5 ; 5 I 8 5 . $ e > : 1 y y : : e l <.w.t.2.f.b.b.p./ s b.x.b.x.+.Q ~ c.2.t 1 "
};
