/* XPM */
static char *_981_7c32253fb032d71932fa438c9392e588a0923199fd510f627b2ec72cc4ff7747[] = {
/* columns rows colors chars-per-pixel */
"50 50 243 2 ",
"   c #392700",
".  c #363507",
"X  c #1E373E",
"o  c #22273C",
"O  c #483400",
"+  c #563306",
"@  c #5D3E16",
"#  c #472E0A",
"$  c #623E1A",
"%  c #513D24",
"&  c #3A401C",
"*  c #39423F",
"=  c #4C460E",
"-  c #594506",
";  c #594517",
":  c #555416",
">  c #645A00",
",  c #7B5707",
"<  c #655819",
"1  c #795A17",
"2  c #66420C",
"3  c #79701B",
"4  c #786415",
"5  c #554625",
"6  c #4E592E",
"7  c #575A26",
"8  c #53533B",
"9  c #695525",
"0  c #725225",
"q  c #5A7036",
"w  c #6D6C33",
"e  c #7A6436",
"r  c #69763A",
"t  c #716E2C",
"y  c #2B344E",
"u  c #304755",
"i  c #3F6266",
"p  c #475C4D",
"a  c #51544B",
"s  c #5D7E41",
"d  c #566B59",
"f  c #506E56",
"g  c #637E4B",
"h  c #687B47",
"j  c #727648",
"k  c #687D54",
"l  c #6E684C",
"z  c #495676",
"x  c #4F666C",
"c  c #667866",
"v  c #6D7F78",
"b  c #767573",
"n  c #68574D",
"m  c #896C04",
"M  c #857600",
"N  c #987D03",
"B  c #896D18",
"V  c #8E6929",
"C  c #86792E",
"Z  c #8E742F",
"A  c #9C7643",
"S  c #887844",
"D  c #88786D",
"F  c #78873A",
"G  c #748A2E",
"H  c #5F8142",
"J  c #638445",
"K  c #65834C",
"L  c #6A854C",
"P  c #6B8B4D",
"I  c #678A47",
"U  c #748C4C",
"Y  c #778849",
"T  c #6E924E",
"R  c #73914F",
"E  c #779349",
"W  c #668451",
"Q  c #6A8554",
"!  c #6D8B53",
"~  c #6D845A",
"^  c #6E8A59",
"/  c #678851",
"(  c #728D54",
")  c #728D5B",
"_  c #7A8E59",
"`  c #778655",
"'  c #6E9153",
"]  c #6F935A",
"[  c #739255",
"{  c #7B9254",
"}  c #75935B",
"|  c #79955C",
" . c #76995A",
".. c #7B9A5D",
"X. c #789955",
"o. c #7FA059",
"O. c #6C8668",
"+. c #748D63",
"@. c #778B66",
"#. c #769261",
"$. c #7A9563",
"%. c #7D9A63",
"&. c #7B956A",
"*. c #7E9A69",
"=. c #769667",
"-. c #738775",
";. c #7B9875",
":. c #6B9766",
">. c #7EA163",
",. c #72A06F",
"<. c #A68A09",
"1. c #A6930A",
"2. c #AB9618",
"3. c #B5A11E",
"4. c #848B3A",
"5. c #979234",
"6. c #BA9728",
"7. c #A98938",
"8. c #BA983B",
"9. c #A9952D",
"0. c #B9A429",
"q. c #B6A236",
"w. c #BDB535",
"e. c #B2AD32",
"r. c #8F841B",
"t. c #C19C0E",
"y. c #CDB815",
"u. c #C69E2D",
"i. c #C5A93B",
"p. c #C9B839",
"a. c #CDB02E",
"s. c #E6CD10",
"d. c #DDC738",
"f. c #D2C62B",
"g. c #EBD526",
"h. c #F1D925",
"j. c #E8D13A",
"k. c #FCE437",
"l. c #F5E12A",
"z. c #848A49",
"x. c #889848",
"c. c #9F9746",
"v. c #848858",
"b. c #958B52",
"n. c #81945D",
"m. c #839B5D",
"M. c #8B9D5D",
"N. c #879755",
"B. c #979B55",
"V. c #958E40",
"C. c #AB9844",
"Z. c #B49849",
"A. c #A88A56",
"S. c #A99A57",
"D. c #AE954D",
"F. c #9DA45C",
"G. c #96A35B",
"H. c #92A44D",
"J. c #B7A747",
"K. c #A5A759",
"L. c #BAA451",
"P. c #ABB058",
"I. c #BAB65B",
"U. c #B1B04A",
"Y. c #829D64",
"T. c #829D6B",
"R. c #879868",
"E. c #829C73",
"W. c #859873",
"Q. c #949471",
"!. c #AD9469",
"~. c #83A165",
"^. c #85A26C",
"/. c #89A56C",
"(. c #89A96D",
"). c #97A968",
"_. c #85A271",
"`. c #8AA672",
"'. c #8CA972",
"]. c #8BA579",
"[. c #91AD75",
"{. c #91AD79",
"}. c #95B279",
"|. c #9CB363",
" X c #A5AB67",
".X c #A0B269",
"XX c #B4B966",
"oX c #A4B673",
"OX c #B8B270",
"+X c #C59D52",
"@X c #C3AB49",
"#X c #C8B848",
"$X c #D2BC47",
"%X c #C5AC5A",
"&X c #CABA57",
"*X c #D7BC5A",
"=X c #D8AB4E",
"-X c #E2BB4D",
";X c #C39D6E",
":X c #C4B965",
">X c #C7A974",
",X c #C8BA76",
"<X c #CDB06D",
"1X c #BDC15B",
"2X c #B6C571",
"3X c #CDC74B",
"4X c #D7C747",
"5X c #C7C755",
"6X c #D9C957",
"7X c #E6C758",
"8X c #EAD55A",
"9X c #F1D746",
"0X c #F8E457",
"qX c #C8C369",
"wX c #DACA68",
"eX c #DCD369",
"rX c #C9C377",
"tX c #D9CF75",
"yX c #D2DD74",
"uX c #E6D76A",
"iX c #E5D878",
"pX c #ECCE6D",
"aX c #F5E564",
"sX c #E5E577",
"dX c #475F81",
"fX c #5A798E",
"gX c #5B7489",
"hX c #617A8C",
"jX c #6B7C9A",
"kX c #5B79A9",
"lX c #7E9581",
"zX c #9D8982",
"xX c #9CA39B",
"cX c #8C9CB4",
"vX c #9EA9B2",
"bX c #B9A58A",
"nX c #CEB291",
"mX c #D7D686",
"MX c #D3D183",
"NX c #E7CC92",
"BX c #DCEA9B",
"VX c #F4ED8D",
"CX c #F0D4AD",
/* pixels */
"Y.Y.[ | | | [ T./.'.^.$.T.^.$.! K ~ O.@.&.) _ $.T.T.,.:.].W.`.(.~...(...} X.L ' T X.! T [ [ ....| ~.",
"[ ..[ [ | Y.| | } ^.'.T.Y.#.) ` ( Q +.+.$.T.Q _ T.&.;.=.$.T.>.>.~.} >...[ ! J R [ [ R } X.} } ..Y.} ",
"! ( ( } | %.%.| ^ | T.*.#.| ^ Q [ ! Q :.W.$.Q ~ ~ W.&.W.$.} } %...[ ( [ [ [ ' ..! [ ..[ ( ' ' ..} K ",
"! ! ( } [ | %.Y.} } $.) ) $.$.Q _ ! ^ *.) ) $.Q ` n.v.v.....[ I } ..! ' P } } [ ! [ ..P P  .} %.%.} ",
"P [ [ } P ..Y.%.} ( ! s g ) +.Q ~ ~ =.%.=._.~.oX2XH.:XXXN.m.T P [ } ! P P }  .[ ..} ..P !  .! ! [ } ",
" .} }  .( } } } *.! W g W ! Q Q ) @.%.=.,.(.m.|.yX1X#XeXI..XX.[ P ( P [ ' [ } } } [ } ! P K s J L L ",
"~.|  .~. .! ! ^ *.) Q ^ #.+.Q ~ k ) %.>.~..X2XU.1X3Xp.3XI.I.H.E R X.} ! P L ! ! ! ' } } [ K K ! I P ",
"..%.%.~.$.! ! } ^ ! ^ ~ } ) Q Q h P ' [ m.M.G.tXsXd.d.$X4X5Xx.X.P } ..I K P ! ! [ } ! ' } } ! J L P ",
"[ ! }  .*.} $.$.$.$.#.#.#.) #.( E I X.X.M.F. XC.eXuX$Xi.i.%XB.{ } ( | ( L ( ! ! $.$.%.} $.| ! K ' ' ",
"[ } %.%.^.$.%.*.#.*.*.*.#.| Y.$.R E T E F.!.tXiXJ.6X%Xu.+X7.b.n.m...[ P K L Q Q } } } } %.$.^ ! P P ",
"! ! } } $.} $.E.T.*.$.$.*.T.T.%.[ E F H.:X:X&X6X#X7.%XtX8.Z  Xn.( | ( } ! K ^ L Q ! $.*.*...} } ..} ",
"! } } } *.$.#.T.&.T.&.$.$.Y.*.| Y.M.).MXI.*X6X6.@XC.L.<X7.C.z.M.%.Y.} } ! W ) ) s g ) $.$.} } } ....",
"*.*.) Q #.$._ T.*.T.T.T.Y.$.} _ v.N.K.L.rXVXiX*XL.Z >XA.;Xb.Y ` %...$.} ! W ^ ^ ~ W Q ) } %.} ( ..~.",
"%.| Q K Q ) ) @.T.T.T.$.Y.$.} m.N.B.I.tXNXL.Z.<X7.;XNXCX!.S ` ) } } %.} ! ^ ^ ) =.^ ) ^ } %.%.} | ..",
") ) Q ~ ) +.^ ^ @.R.T.R.#.| n.).2XsXVXuX&X%XC.&XL.NX;X!.v._ ( } $.%.*.} ~ ^ ) $.=.#.#.#.$.%.$.%.%.} ",
"} ) Q Q k ^ ^ ^ $.#.| $.R.Y.n.G.1X6X#X@X%XD.K.rXU.C.nXD W.*.} ( K ! } ' W ! ^ _ #.} $.%.^.^.%.%.} Q ",
") +.Q h ) ) ! ) ) ( Y.| Y.).N.XXU.i.9.<XnX!.-.c qXC.b cXgXp @._ J T >. .I ' [ ( ..} } | $.%.^.} Q ! ",
"$.) Q ) _ ) } _ ! } n.m.m.N.).BXeX#XZ.A.A nXvXn U.J.j d gXp n.Y E I H H I T R X.[ | } }  .%.%.] ^ Q ",
"$.) k ( *.#.( } $.} { m.M.Y .XG.U.<X<X;XA ;XbXe B 6Xp.1X-.p Y r R R { P ' X.Y.~...~.Y.%.>. .' K g k ",
"&.&.) +.T.Y.} $.%.| /.~.).).G.N.MX,XA.>XD nXNXV O &Xj.4XOXl F.3 x.R U L X...~./.~...X.[ L [ ../ W W ",
"^.*.T.*.Y.W.'.T.T.^./.).M.|.).rXwXZ.>X!.n Q.nX$   C uXJ.XXb.t 7 v.| Y h n.{ ..~.[ R T T I ' X.[ } %.",
"].'.`.%.$.`.{.'.`.T.Y./.M.N.oX2XC L.OXS a D nXA 0 = 7 ; w 7 % v.v.Y h Y U ( m.[ ....T T ' I T ~.^.^.",
"}.}.^.%.^.'._._.T.T.}.| ).m.). X).K.&XU.e nX+X+X%X9 * u y o 8 Q.` h q h L ` } ! T [ J H [ I J } >.^.",
"(. .} ..~.[.[.`.{.'.{./.Y.m.oXG.M.XXsXsX,X X7.=X*XZ n x z o a l . h j ( ` ( H ' ! T q H P I J J X...",
"H H T ..~.^./.Y.`.{.xX(.%...[. XMXsX6Xq.&XpX-Xu.2.0.$X8.S.0 % l 6 h _ _ ^ ! ! %./ ' s H [ P ! [ [  .",
"I H I } m.>.%.Y._.>.>.o.} m.).).:X&X6.0.$XaX-X<.1.d.h.t.i.Z 9 l ~ Q ) @.g H :.] / ! K K } ! [ [ T T ",
"T I J T m.~.%.} %.#.>.%.} Y.Y.z.P.iX$Xa.aX8Xu.t.g.h.s.y.p.3 w j $.#.^ #.;.=. .W / / K K ( ) %...T T ",
" . .T X.m.~.X.[ %.} %.%.` U L N.BX1Xp.8X8X-Xi.9Xl.s.h.d.r.< 7 h } ^.=.%.>.=./ / H / W W Q ( *.T.>.>.",
"%...%.~.m.R P .... .}  .[ L J ).|.G 8X8X@XwX8Xd.h.h.9X+X. & 6 P } ] } ^.%.^ ! ! W W Q Q Q ^ *.^.^.,.",
"%.$.%.Y.%.[ [ >.T  .] [ [ P L m.E XXsXi.L.L.4Xy.y.y.m +   l 6 Q ( L ) ^.^.*.%.) Q Q ^ ^ ^ +.E.]._.(.",
"*.*.*.^./.~.~.m.[ >.>.X.} X.{ N.Y mXaXqXK.4.a.0Xy.a.V + V OX7 E.( Y.Y.%.%...$.$.! Q ^ ^ #.=.*.;.].].",
"E.#.*.[.'.~.X.>.o.X. .>.m.P | U N.MXI.C.G x.2.a.d.i.0 # V c.= T.} ..| | | } #.} ^ Q Q ^ #.] ) =.*.*.",
";.*.=._.^.~./.~.>.~...X.[ L P R z..XN.F x.5.3.f.u.m 2 5 Z > 7 $.~.^.'.^.*.%.*.$.) Q W ^ +.+.#.+.;.;.",
"T.T.#.*.%.%.^.~.'  ...T [ I [ { U N.n.E 5.5.3.3.q.2 $ $ %X- w Q.| ( T.^.*.%.$.^ ^ ^ ^ ^ #.*.=.^ +.@.",
"$.&.$.$.*.(  .}  .[ ' ' X.[ | [ ! [ R 4.5.w.d.r.B 0 5 + 8X#X9 Q.$.! $.Y.$.#.*.^ ~ #.^ ^ #.$.#.Q Q ~ ",
"*.#._ $.Y.P ! } } R P R X.} | ( $.[ x.c.2.d.aXe.1 0 ; Z 4X1.< Q.R.) } } ! Q =.$.^ ^ ^ ) #.=.#.#.^ ) ",
"$.$.*.^.^.( P [ [ ' ! [ [ [ ..} ^.E e.p.3.aX6X> 0 5 + @X1.M 4.R.&.$.) K W g ^ ^ ! ~ ^ #.*.*.T.^.*.T.",
"T.'.}.[./...[ P [ } P ! ! } | }  .F w.j., <.M , V # 1 Z.$Xw.F ( _ Y.^ W K W ^ ^ Q ! ) %.T.^.`./.'.'.",
"^.'.'.^...Y.| [ } ..I L ! ) ) ! :.G f.k.1.<.=Xm @ # V u.3X> r _ ) *.^ ^ Q ^ $.^ Q W ] $.$.~.^.%.....",
"%.} | ..| ..X.! [ ..! K K ! ! ] ] G 3X9Xa.0X6., e   4 7.%X3 r _ ) +.W ] ! #.} K ! H ! } } %.~. .} ..",
"} [ ! P L ..} | } ..P Q ! Q ) } } X.5.w.9.<.3.$X5.4.t < - b.` T.T.) *.#.#.%.) | ^ } ! | %...} ..[ [ ",
"! ! J I [ ~.~.X.} } ! L Q ! ^ ] } | Y = c.&Xi.8.F r 8 l 7 j W.$.T.=.T.$.#.%.%.^.%.^ P | } } } [ ' R ",
"T P q J [ ~.~.[ ..} [ K Q ^ Q Q h @.xXjXa % Z C N.f z z c Q.@.$.E.*.T.*.#.%.%.T.%.[ ( } } ..{ P I J ",
"P L H H J R ....m...} ! W ^ W W h R.vXjXy a j N.m.f kXkXv R.$.T.T.*.*.*.$.%.Y.| %.~.| ( } } ( } L L ",
" .I J H J P } Y...} } Q W #.^ Q k W.cXdXX c Y.[ '.f fXjXc &.R.) $.T.T.T.T.$.Y.n.[ } | m.~.{ [ ~.[ [ ",
">.P L I ' [ R X.| | } Q ^ ) +.+.c lXfXu i ;.} | E.p fXfXd @.^ ) ) *.T.T.Y.$.$.| | [ ~.[./...| [ | ..",
"[ P P ' X.U [ X.} ..} ! ^ ^ ] =.;.lXu u lX=.E.;.O.f gXfXf +.$.U ^ &.T.$.$.| | m.} { Y./.Y.Y.[.~.! ( ",
"(.} P [ ..[ P h [ | ! K ! Q #.;.O.p p -.`.;.=.+.O.-.x i d W ` ` ` $.#.} Y.T.$.Y.~.Y./.~.m.[ m.Y...%.",
"(.P h P ..X.[ J R X.[ P ( ( ' } $.$.*.&.*.*.+.~ ~ &.O.O.~ ^ ( ) ` ) ( $.$.Y.R.Y.'././.Y.( [ Y.(.[.^.",
"^.P J P X.[ X.U J I I J P [ } ..} } | | $.$.) ~ ^ #.) ! ~ } #.} ) _ ) *.n.Y.R.Y./.T.T.$.} | | Y.R.#."
};
