/* XPM */
static char *_9889_0558b2c8594d5f081a59b484e2d6dc349e6f0f5000c3c210e3b222de0a4fbda6[] = {
/* columns rows colors chars-per-pixel */
"50 50 32 1 ",
"  c #853C0B",
". c #8A3E0B",
"X c #8E400B",
"o c #94420C",
"O c #9B460C",
"+ c #9F480D",
"@ c #A44A0E",
"# c #AB4E0E",
"$ c #AF500F",
"% c #B3510F",
"& c #A34C10",
"* c #AA4F11",
"= c #AE5011",
"- c #B55311",
"; c #BC5610",
": c #B75817",
"> c #BF5811",
", c #BC5B1A",
"< c #C15913",
"1 c #C35E1A",
"2 c #C5611D",
"3 c #C9631E",
"4 c #C56321",
"5 c #CB6622",
"6 c #CE6926",
"7 c #CE6B29",
"8 c #D06B27",
"9 c #D26D2A",
"0 c #D5702E",
"q c #D67231",
"w c #D97534",
"e c None",
/* pixels */
"e.oXXXXooo.o .XXXoXXo.oo. ..X  X....  XX X XXX X e",
"X:455554333-o#122222111<@O;22442122,#o->:,,:,>::$X",
"o6wq7655331<@,wwq866383<##8wq8663533%@60wq708883;o",
"o80<>>>><<<;@2w2<>>><<<<#%08<>>-;<<;%*002<>><<<>;X",
"o83<>><><;<;@49>><;<;<<<#=03>>>><<;<%@05>>>>>>>>;o",
"o83<>>>><<<;+28>><<<<<<<@-91>>>>;<<<$#03>>>>>>>>;X",
"o----%%----#o=-%%%%%%%%;O@--%$%%%#%%++<>-;-;;;%;$X",
" ..XoXXooOoo.XOoooo..... .oooooXooooX ooOoooooOoX ",
".#---$X#124422224>OO:,1,,,,,,-@o%,,,,,,,,:*X-,,>=X",
"o3076,O,ww0883656<@:qwq9888861##0wq0088883%@8033;X",
"o42>>;O,w2<>;<<;;>#:w6<<<>>><;#*00<,>>>><>-@5<;<;X",
"o3>>>;O20<>><<;<>>#:0<<<>><><<$*03>>>>>>>>-@3>;<-X",
"o2<>>;O,8<<<<<<<><@:0<<<<;<<;<%#0<>;>>>>>>%@2<<<;o",
"X$%%%$o=>%---%-%%%O%1-;-;;;-;-@@2;;;>>-;;;$o%-;%=X",
" XooooXXOoooXooooo.XOOOOoooOOo..oOOOooOOOOoXoooOX ",
"X-234342242-X#-1,1,:>,>-o@,24421,22;OO:22423222<* ",
"O3w08885533-@1qw0087885<#-ww0866355<##8w00663383-.",
"O801<<<;<<<;O5q3<<>>;<<<#>w5>>>>;<<<##00<<>>;<<<%X",
"O68<<;<;<<<;@48<>><><;<<#:q<;<>><;<<#@93>>>>>;<<%o",
"O33<;<<;<;<-@48<>>>><;<<#:8><;<>;<<<#@83>>>><;<<%X",
"o->---;;%%;#o;1;-;;-;;--+=<-;;;;;->-@O<-;%-;----@.",
" ooOOoooO@@oOooOOOooOOOoXoOOOOOoOOOOoXOOOOoXOOOOo ",
".-1,,-X-465685314>O+>44444222;@o:24424332<%o,332-.",
"o6966>O1wq85333<3<#:ww07665551#$0w08663333%#8832;o",
"o5<<>;O2q1<<;;<<;<@:w1<<<;;;<;##q6<>;<<;;>%@3;;<-o",
"o2<>>-O29<<<<<<<<<@,0<;<><<;<<##02>>;<<<<>%@3<<;-o",
"o1><<%O16<<<<<<<<;@:9<<<><<<<<##82<<<;<<;<%@<<<<;o",
"X&*##@X#$$$$##%#$#o@;;--%-%;%-OO;%;%%;%%%%@o%%%%@.",
" oOO+OoOOOOO.oOOOOoOOOOOoXOOOOoXOOOOoXOOOOoXoooo. ",
"o1888876885<O:586666553<O#123332222:#O,436535452%.",
"O8w85323111;@5wq8333332<#,ww9866555<##8w08663333-.",
"O06<<;;<<<<;@59<<;<<;;<<@,w2<<;>>>>>##08<>>;<;<<-X",
"O75>>>>>>><;@56;>>>;<;<<@,0><<;<<;<<$#75>><<;;<;-.",
"O62>>>>>><<;@23>><><<<<;@>8>;<<;;<;<##73>>;<<<<<-.",
"o#$$$$$$#%#@.@*@@@@#@@#@o&;-%;%%%%%%+O-;%%-%%%%%@.",
" oOoOoXo@O@O@+O@++X.OOOOoOOOOOOXOO@OOOOOOOOoOO@Oo ",
"X,663>o;699888868<##3666863652#O<388883363%o<663>o",
"o5622>O2w98322321<#-ww86533331%#3qq5333332;@3822<o",
"o2>>>;O2q<;;<;;<<;#-q3>>>>;;;;%@5q<<<;;;>>%@3<<;;o",
"o2>>>>O20<<;<<;<;<@:01>>><>><<%#59<<<><<>>%@2<<<-o",
"o;>><-O,8<>>>>>><<@%9<>><<<<<<%#36>>>>>>><%@>>>>-o",
"X+@@@O.@#@@##@@#@@.@%%#=#$#*$$oo$$$$$$$$$$Oo####@.",
" o@&@#@@@#@@Xo@@@@@@@@@@..O@@O@oOO@Oo.OOOOOOOOoOo ",
"X2800099886>+-679888565<##3898998883%O2336635362;.",
"o7w73<1<<1<;@2w0333<11<<#$0q511122<<%$8w08633333;o",
"o77>;<<<<<<>+4q>;;<<<<<<#$06;;<<<><<%@07<<>;>>>>;o",
"o73><;;<<;>;@49>;<<;<<;<#%01<<<<>><<%@93>><>>>>>;o",
"o32>;<<;<<<-+,5><<;<<<<<@$61;<;<;>>>$#82>>>>>>><;.",
"X@###@#@##@@.O#@@@@@@@@@.o@@@@@@@@@@Oo%##%#%%###@.",
"e           e . . . ...   ........ .   . .    ...e"
};
